<svg width="272" height="308" viewBox="0 0 272 308" fill="none" xmlns="http://www.w3.org/2000/svg">
<g clip-path="url(#clip0_12_662)">
<mask id="mask0_12_662" style="mask-type:alpha" maskUnits="userSpaceOnUse" x="0" y="0" width="272" height="308">
<path d="M250 308H22C9.84974 308 0 298.15 0 286V22C0 9.84974 9.84974 0 22 0H170L272 102V286C272 298.15 262.15 308 250 308Z" fill="url(#paint0_linear_12_662)"/>
</mask>
<g mask="url(#mask0_12_662)">
<path d="M250 308H22C9.84974 308 0 298.15 0 286V22C0 9.84974 9.84974 0 22 0H170L272 102V286C272 298.15 262.15 308 250 308Z" fill="url(#paint1_linear_12_662)"/>
<path opacity="0.12" fill-rule="evenodd" clip-rule="evenodd" d="M199 139H73V127H199V139ZM199 169H73V157H199V169ZM73 199H199V187H73V199ZM199 229H73V217H199V229ZM73 259H199V247H73V259Z" fill="white"/>
<path d="M62.2181 217.395C61.2174 217.395 60.3748 217.053 59.6901 216.368C59.0054 215.683 58.6631 214.841 58.6631 213.84V165.492C58.6631 164.491 59.0054 163.649 59.6901 162.964C60.3748 162.227 61.2174 161.858 62.2181 161.858H80.2301C85.2334 161.858 89.3151 162.701 92.4751 164.386C95.6351 166.071 97.8998 168.231 99.2691 170.864C100.638 173.497 101.323 176.341 101.323 179.396C101.323 182.451 100.638 185.295 99.2691 187.928C97.8998 190.561 95.6351 192.721 92.4751 194.406C89.3151 196.091 85.2334 196.934 80.2301 196.934H65.8521V213.84C65.8521 214.841 65.4834 215.683 64.7461 216.368C64.0614 217.053 63.2188 217.395 62.2181 217.395ZM79.5191 190.14C84.8911 190.14 88.6568 189.113 90.8161 187.059C93.0281 185.005 94.1341 182.451 94.1341 179.396C94.1341 176.341 93.0281 173.787 90.8161 171.733C88.6568 169.679 84.8911 168.652 79.5191 168.652H65.8521V190.14H79.5191ZM120.826 217C119.825 217 118.983 216.658 118.298 215.973C117.613 215.288 117.271 214.446 117.271 213.445V165.492C117.271 164.491 117.613 163.649 118.298 162.964C118.983 162.227 119.825 161.858 120.826 161.858H136.705C142.709 161.858 147.791 163.201 151.952 165.887C156.165 168.52 159.325 171.944 161.432 176.157C163.539 180.37 164.592 184.794 164.592 189.429C164.592 194.064 163.539 198.488 161.432 202.701C159.325 206.914 156.165 210.364 151.952 213.05C147.791 215.683 142.709 217 136.705 217H120.826ZM135.836 210.285C140.155 210.285 143.947 209.416 147.212 207.678C150.477 205.887 153.005 203.438 154.796 200.331C156.587 197.171 157.482 193.537 157.482 189.429C157.482 185.321 156.587 181.713 154.796 178.606C153.005 175.446 150.477 172.997 147.212 171.259C143.947 169.468 140.155 168.573 135.836 168.573H124.46V210.285H135.836ZM185.683 217.395C184.683 217.395 183.84 217.053 183.155 216.368C182.471 215.683 182.128 214.841 182.128 213.84V165.492C182.128 164.491 182.471 163.649 183.155 162.964C183.84 162.227 184.683 161.858 185.683 161.858H216.414C217.362 161.858 218.152 162.2 218.784 162.885C219.469 163.517 219.811 164.307 219.811 165.255C219.811 166.203 219.469 166.993 218.784 167.625C218.152 168.257 217.362 168.573 216.414 168.573H189.317V186.032H213.649C214.597 186.032 215.387 186.374 216.019 187.059C216.704 187.691 217.046 188.481 217.046 189.429C217.046 190.377 216.704 191.167 216.019 191.799C215.387 192.431 214.597 192.747 213.649 192.747H189.317V213.84C189.317 214.841 188.949 215.683 188.211 216.368C187.527 217.053 186.684 217.395 185.683 217.395Z" fill="white"/>
<path d="M59.6901 216.368L61.1043 214.954L59.6901 216.368ZM59.6901 162.964L61.1043 164.378L61.1305 164.352L61.1557 164.325L59.6901 162.964ZM92.4751 164.386L93.4163 162.621L92.4751 164.386ZM99.2691 170.864L97.4947 171.787L99.2691 170.864ZM99.2691 187.928L97.4947 187.005L99.2691 187.928ZM92.4751 194.406L93.4163 196.171L92.4751 194.406ZM65.8521 196.934V194.934H63.8521V196.934H65.8521ZM64.7461 216.368L63.3852 214.902L63.3581 214.928L63.3319 214.954L64.7461 216.368ZM90.8161 187.059L89.4552 185.593L89.4464 185.602L89.4377 185.61L90.8161 187.059ZM90.8161 171.733L89.4377 173.182L89.4464 173.19L89.4552 173.199L90.8161 171.733ZM65.8521 168.652V166.652H63.8521V168.652H65.8521ZM65.8521 190.14H63.8521V192.14H65.8521V190.14ZM62.2181 215.395C61.728 215.395 61.4001 215.25 61.1043 214.954L58.2759 217.782C59.3494 218.856 60.7068 219.395 62.2181 219.395V215.395ZM61.1043 214.954C60.8085 214.658 60.6631 214.33 60.6631 213.84H56.6631C56.6631 215.351 57.2024 216.709 58.2759 217.782L61.1043 214.954ZM60.6631 213.84V165.492H56.6631V213.84H60.6631ZM60.6631 165.492C60.6631 165.002 60.8085 164.674 61.1043 164.378L58.2759 161.55C57.2024 162.623 56.6631 163.981 56.6631 165.492H60.6631ZM61.1557 164.325C61.4643 163.993 61.7771 163.858 62.2181 163.858V159.858C60.6578 159.858 59.2852 160.461 58.2245 161.603L61.1557 164.325ZM62.2181 163.858H80.2301V159.858H62.2181V163.858ZM80.2301 163.858C85.0283 163.858 88.7556 164.669 91.5339 166.151L93.4163 162.621C89.8746 160.732 85.4386 159.858 80.2301 159.858V163.858ZM91.5339 166.151C94.4124 167.686 96.3473 169.58 97.4947 171.787L101.043 169.941C99.4522 166.881 96.8578 164.457 93.4163 162.621L91.5339 166.151ZM97.4947 171.787C98.7114 174.127 99.3231 176.653 99.3231 179.396H103.323C103.323 176.03 102.565 172.868 101.043 169.941L97.4947 171.787ZM99.3231 179.396C99.3231 182.139 98.7114 184.665 97.4947 187.005L101.043 188.851C102.565 185.924 103.323 182.762 103.323 179.396H99.3231ZM97.4947 187.005C96.3473 189.212 94.4124 191.106 91.5339 192.641L93.4163 196.171C96.8578 194.335 99.4522 191.911 101.043 188.851L97.4947 187.005ZM91.5339 192.641C88.7556 194.123 85.0283 194.934 80.2301 194.934V198.934C85.4386 198.934 89.8746 198.06 93.4163 196.171L91.5339 192.641ZM80.2301 194.934H65.8521V198.934H80.2301V194.934ZM63.8521 196.934V213.84H67.8521V196.934H63.8521ZM63.8521 213.84C63.8521 214.281 63.7176 214.594 63.3852 214.902L66.107 217.834C67.2493 216.773 67.8521 215.4 67.8521 213.84H63.8521ZM63.3319 214.954C63.0361 215.25 62.7082 215.395 62.2181 215.395V219.395C63.7294 219.395 65.0868 218.856 66.1603 217.782L63.3319 214.954ZM79.5191 192.14C85.0311 192.14 89.4606 191.109 92.1945 188.508L89.4377 185.61C87.853 187.117 84.7511 188.14 79.5191 188.14V192.14ZM92.177 188.525C94.802 186.087 96.1341 182.999 96.1341 179.396H92.1341C92.1341 181.902 91.2542 183.923 89.4552 185.593L92.177 188.525ZM96.1341 179.396C96.1341 175.793 94.802 172.705 92.177 170.267L89.4552 173.199C91.2542 174.869 92.1341 176.89 92.1341 179.396H96.1341ZM92.1945 170.284C89.4606 167.683 85.0311 166.652 79.5191 166.652V170.652C84.7511 170.652 87.853 171.675 89.4377 173.182L92.1945 170.284ZM79.5191 166.652H65.8521V170.652H79.5191V166.652ZM63.8521 168.652V190.14H67.8521V168.652H63.8521ZM65.8521 192.14H79.5191V188.14H65.8521V192.14ZM118.298 215.973L119.712 214.559L118.298 215.973ZM118.298 162.964L119.712 164.378L119.739 164.352L119.764 164.325L118.298 162.964ZM151.952 165.887L150.867 167.567L150.88 167.575L150.892 167.583L151.952 165.887ZM161.432 176.157L159.643 177.051L161.432 176.157ZM161.432 202.701L159.643 201.807L161.432 202.701ZM151.952 213.05L153.022 214.74L153.027 214.736L151.952 213.05ZM147.212 207.678L148.152 209.443L148.163 209.438L148.174 209.432L147.212 207.678ZM154.796 200.331L156.529 201.33L156.533 201.323L156.536 201.317L154.796 200.331ZM154.796 178.606L153.056 179.592L153.06 179.598L153.063 179.605L154.796 178.606ZM147.212 171.259L146.25 173.013L146.261 173.019L146.272 173.024L147.212 171.259ZM124.46 168.573V166.573H122.46V168.573H124.46ZM124.46 210.285H122.46V212.285H124.46V210.285ZM120.826 215C120.336 215 120.008 214.855 119.712 214.559L116.884 217.387C117.957 218.461 119.315 219 120.826 219V215ZM119.712 214.559C119.417 214.263 119.271 213.935 119.271 213.445H115.271C115.271 214.956 115.81 216.314 116.884 217.387L119.712 214.559ZM119.271 213.445V165.492H115.271V213.445H119.271ZM119.271 165.492C119.271 165.002 119.417 164.674 119.712 164.378L116.884 161.55C115.81 162.623 115.271 163.981 115.271 165.492H119.271ZM119.764 164.325C120.072 163.993 120.385 163.858 120.826 163.858V159.858C119.266 159.858 117.893 160.461 116.833 161.603L119.764 164.325ZM120.826 163.858H136.705V159.858H120.826V163.858ZM136.705 163.858C142.407 163.858 147.093 165.131 150.867 167.567L153.037 164.207C148.49 161.271 143.012 159.858 136.705 159.858V163.858ZM150.892 167.583C154.811 170.032 157.71 173.186 159.643 177.051L163.221 175.263C160.941 170.702 157.52 167.008 153.012 164.191L150.892 167.583ZM159.643 177.051C161.613 180.992 162.592 185.11 162.592 189.429H166.592C166.592 184.479 165.464 179.749 163.221 175.263L159.643 177.051ZM162.592 189.429C162.592 193.748 161.613 197.866 159.643 201.807L163.221 203.595C165.464 199.109 166.592 194.379 166.592 189.429H162.592ZM159.643 201.807C157.708 205.676 154.804 208.86 150.877 211.364L153.027 214.736C157.526 211.868 160.943 208.152 163.221 203.595L159.643 201.807ZM150.883 211.36C147.106 213.75 142.414 215 136.705 215V219C143.004 219 148.477 217.616 153.022 214.74L150.883 211.36ZM136.705 215H120.826V219H136.705V215ZM135.836 212.285C140.427 212.285 144.552 211.359 148.152 209.443L146.272 205.913C143.341 207.473 139.882 208.285 135.836 208.285V212.285ZM148.174 209.432C151.748 207.472 154.548 204.767 156.529 201.33L153.063 199.332C151.463 202.11 149.207 204.303 146.25 205.924L148.174 209.432ZM156.536 201.317C158.519 197.819 159.482 193.837 159.482 189.429H155.482C155.482 193.237 154.655 196.523 153.056 199.345L156.536 201.317ZM159.482 189.429C159.482 185.022 158.519 181.06 156.529 177.607L153.063 179.605C154.655 182.366 155.482 185.62 155.482 189.429H159.482ZM156.536 177.62C154.555 174.123 151.746 171.407 148.152 169.494L146.272 173.024C149.209 174.587 151.456 176.769 153.056 179.592L156.536 177.62ZM148.174 169.505C144.57 167.529 140.437 166.573 135.836 166.573V170.573C139.873 170.573 143.324 171.408 146.25 173.013L148.174 169.505ZM135.836 166.573H124.46V170.573H135.836V166.573ZM122.46 168.573V210.285H126.46V168.573H122.46ZM124.46 212.285H135.836V208.285H124.46V212.285ZM183.155 216.368L184.569 214.954L183.155 216.368ZM183.155 162.964L184.569 164.378L184.596 164.352L184.621 164.325L183.155 162.964ZM218.784 162.885L217.315 164.242L217.369 164.3L217.428 164.355L218.784 162.885ZM218.784 167.625L217.428 166.155L217.398 166.183L217.37 166.211L218.784 167.625ZM189.317 168.573V166.573H187.317V168.573H189.317ZM189.317 186.032H187.317V188.032H189.317V186.032ZM216.019 187.059L214.55 188.416L214.604 188.474L214.663 188.529L216.019 187.059ZM216.019 191.799L214.663 190.329L214.633 190.357L214.605 190.385L216.019 191.799ZM189.317 192.747V190.747H187.317V192.747H189.317ZM188.211 216.368L186.85 214.902L186.823 214.928L186.797 214.954L188.211 216.368ZM185.683 215.395C185.193 215.395 184.865 215.25 184.569 214.954L181.741 217.782C182.815 218.856 184.172 219.395 185.683 219.395V215.395ZM184.569 214.954C184.274 214.658 184.128 214.33 184.128 213.84H180.128C180.128 215.351 180.668 216.709 181.741 217.782L184.569 214.954ZM184.128 213.84V165.492H180.128V213.84H184.128ZM184.128 165.492C184.128 165.002 184.274 164.674 184.569 164.378L181.741 161.55C180.668 162.623 180.128 163.981 180.128 165.492H184.128ZM184.621 164.325C184.929 163.993 185.242 163.858 185.683 163.858V159.858C184.123 159.858 182.75 160.461 181.69 161.603L184.621 164.325ZM185.683 163.858H216.414V159.858H185.683V163.858ZM216.414 163.858C216.815 163.858 217.069 163.975 217.315 164.242L220.254 161.528C219.236 160.426 217.909 159.858 216.414 159.858V163.858ZM217.428 164.355C217.694 164.601 217.811 164.854 217.811 165.255H221.811C221.811 163.76 221.244 162.433 220.141 161.415L217.428 164.355ZM217.811 165.255C217.811 165.656 217.694 165.909 217.428 166.155L220.141 169.095C221.244 168.077 221.811 166.75 221.811 165.255H217.811ZM217.37 166.211C217.138 166.443 216.868 166.573 216.414 166.573V170.573C217.857 170.573 219.167 170.071 220.198 169.039L217.37 166.211ZM216.414 166.573H189.317V170.573H216.414V166.573ZM187.317 168.573V186.032H191.317V168.573H187.317ZM189.317 188.032H213.649V184.032H189.317V188.032ZM213.649 188.032C214.05 188.032 214.304 188.149 214.55 188.416L217.489 185.702C216.471 184.6 215.144 184.032 213.649 184.032V188.032ZM214.663 188.529C214.929 188.775 215.046 189.028 215.046 189.429H219.046C219.046 187.934 218.479 186.607 217.376 185.589L214.663 188.529ZM215.046 189.429C215.046 189.83 214.929 190.083 214.663 190.329L217.376 193.269C218.479 192.251 219.046 190.924 219.046 189.429H215.046ZM214.605 190.385C214.373 190.617 214.103 190.747 213.649 190.747V194.747C215.092 194.747 216.402 194.245 217.433 193.213L214.605 190.385ZM213.649 190.747H189.317V194.747H213.649V190.747ZM187.317 192.747V213.84H191.317V192.747H187.317ZM187.317 213.84C187.317 214.281 187.183 214.594 186.85 214.902L189.572 217.834C190.714 216.773 191.317 215.4 191.317 213.84H187.317ZM186.797 214.954C186.501 215.25 186.173 215.395 185.683 215.395V219.395C187.195 219.395 188.552 218.856 189.625 217.782L186.797 214.954Z" fill="white"/>
<mask id="mask1_12_662" style="mask-type:alpha" maskUnits="userSpaceOnUse" x="0" y="0" width="272" height="308">
<path d="M250 308H22C9.84974 308 0 298.15 0 286V22C0 9.84974 9.84974 0 22 0H170L272 102V286C272 298.15 262.15 308 250 308Z" fill="url(#paint2_linear_12_662)"/>
</mask>
<g mask="url(#mask1_12_662)">
<path opacity="0.08" d="M-27.5 208C95.9356 208 196 111.965 196 -6.5C196 -124.965 95.9356 -221 -27.5 -221C-150.936 -221 -251 -124.965 -251 -6.5C-251 111.965 -150.936 208 -27.5 208Z" fill="url(#paint3_linear_12_662)"/>
<path opacity="0.08" d="M-27.5 128C50.096 128 113 67.7823 113 -6.5C113 -80.7823 50.096 -141 -27.5 -141C-105.096 -141 -168 -80.7823 -168 -6.5C-168 67.7823 -105.096 128 -27.5 128Z" fill="url(#paint4_linear_12_662)"/>
<g filter="url(#filter0_d_12_662)">
<path d="M272 102H192C179.85 102 170 92.1503 170 80V0L272 102Z" fill="url(#paint5_linear_12_662)"/>
</g>
</g>
</g>
</g>
<defs>
<filter id="filter0_d_12_662" x="147" y="-24" width="152" height="152" filterUnits="userSpaceOnUse" color-interpolation-filters="sRGB">
<feFlood flood-opacity="0" result="BackgroundImageFix"/>
<feColorMatrix in="SourceAlpha" type="matrix" values="0 0 0 0 0 0 0 0 0 0 0 0 0 0 0 0 0 0 127 0" result="hardAlpha"/>
<feOffset dx="2" dy="1"/>
<feGaussianBlur stdDeviation="12.5"/>
<feColorMatrix type="matrix" values="0 0 0 0 0 0 0 0 0 0 0 0 0 0 0 0 0 0 0.33 0"/>
<feBlend mode="normal" in2="BackgroundImageFix" result="effect1_dropShadow_12_662"/>
<feBlend mode="normal" in="SourceGraphic" in2="effect1_dropShadow_12_662" result="shape"/>
</filter>
<linearGradient id="paint0_linear_12_662" x1="136" y1="0" x2="136" y2="308" gradientUnits="userSpaceOnUse">
<stop stop-color="#FF7979"/>
<stop offset="1" stop-color="#E85555"/>
</linearGradient>
<linearGradient id="paint1_linear_12_662" x1="136" y1="0" x2="136" y2="308" gradientUnits="userSpaceOnUse">
<stop stop-color="#FF7981"/>
<stop offset="1" stop-color="#E85567"/>
</linearGradient>
<linearGradient id="paint2_linear_12_662" x1="136" y1="0" x2="136" y2="308" gradientUnits="userSpaceOnUse">
<stop stop-color="#FF7981"/>
<stop offset="1" stop-color="#E85567"/>
</linearGradient>
<linearGradient id="paint3_linear_12_662" x1="-11.2723" y1="0.871146" x2="56.5069" y2="180.758" gradientUnits="userSpaceOnUse">
<stop stop-color="white" stop-opacity="0"/>
<stop offset="1" stop-color="white"/>
</linearGradient>
<linearGradient id="paint4_linear_12_662" x1="-17.2987" y1="-1.87802" x2="25.1204" y2="110.989" gradientUnits="userSpaceOnUse">
<stop stop-color="white" stop-opacity="0"/>
<stop offset="1" stop-color="white"/>
</linearGradient>
<linearGradient id="paint5_linear_12_662" x1="221" y1="0" x2="221" y2="102" gradientUnits="userSpaceOnUse">
<stop stop-color="#D03954"/>
<stop offset="1" stop-color="#C02A3C"/>
</linearGradient>
<clipPath id="clip0_12_662">
<rect width="272" height="308" fill="white"/>
</clipPath>
</defs>
</svg>
